<?xml version="1.0" encoding="UTF-8"?>
<svg xmlns="http://www.w3.org/2000/svg" viewBox="0 0 220 320" role="img" aria-label="Superplumber style goal flag">
  <defs>
    <linearGradient id="poleGradient" x1="0" y1="0" x2="0" y2="1">
      <stop offset="0%" stop-color="#f0f0f0" />
      <stop offset="100%" stop-color="#b5b5b5" />
    </linearGradient>
    <linearGradient id="flagGradient" x1="0" y1="0" x2="1" y2="0">
      <stop offset="0%" stop-color="#ff5b5b" />
      <stop offset="100%" stop-color="#ff9248" />
    </linearGradient>
    <filter id="shadow" x="-20%" y="-20%" width="140%" height="160%" color-interpolation-filters="sRGB">
      <feDropShadow dx="0" dy="6" stdDeviation="6" flood-color="#000" flood-opacity="0.25" />
    </filter>
  </defs>

  <g filter="url(#shadow)">
    <rect x="100" y="40" width="16" height="220" rx="8" fill="url(#poleGradient)" />
    <circle cx="108" cy="32" r="18" fill="#f9d264" stroke="#d4a72c" stroke-width="6" />
    <rect x="82" y="260" width="52" height="20" rx="8" fill="#5f4430" />
    <rect x="66" y="280" width="84" height="24" rx="12" fill="#3b2c1c" />

    <path d="M116 56h70c15 0 24 12 24 26s-9 26-24 26c15 0 24 12 24 26s-9 26-24 26h-70z" fill="url(#flagGradient)" stroke="#c9372c" stroke-width="6" stroke-linejoin="round" />

    <path d="M148 102l9.5 19.2 21.2 3.1-15.3 15 3.6 21-19-10-19 10 3.6-21-15.3-15 21.2-3.1z" fill="#fff7c2" stroke="#e0ce75" stroke-width="5" stroke-linejoin="round" />
  </g>
</svg>
