<?xml version="1.0" encoding="UTF-8"?>
<svg xmlns="http://www.w3.org/2000/svg" viewBox="0 0 220 220" role="img" aria-label="Mario style mushroom">
  <defs>
    <linearGradient id="capGradient" x1="0" y1="0" x2="0" y2="1">
      <stop offset="0%" stop-color="#ff5f6d" />
      <stop offset="100%" stop-color="#f43834" />
    </linearGradient>
    <linearGradient id="stemGradient" x1="0" y1="0" x2="0" y2="1">
      <stop offset="0%" stop-color="#ffe5c4" />
      <stop offset="100%" stop-color="#f2c08c" />
    </linearGradient>
    <filter id="dropShadow" x="-20%" y="-20%" width="140%" height="160%" color-interpolation-filters="sRGB">
      <feDropShadow dx="0" dy="8" stdDeviation="6" flood-color="#000" flood-opacity="0.25" />
    </filter>
  </defs>

  <g filter="url(#dropShadow)">
    <path d="M26 86c0-44 42-74 84-74s84 30 84 74c0 24-13 44-32 51H58C39 130 26 110 26 86z" fill="url(#capGradient)" stroke="#b01a24" stroke-width="8" stroke-linejoin="round" />
    <circle cx="76" cy="92" r="26" fill="#fff8e4" stroke="#f5d4a4" stroke-width="6" />
    <circle cx="144" cy="92" r="26" fill="#fff8e4" stroke="#f5d4a4" stroke-width="6" />
    <path d="M74 132h72v42c0 18-16 34-36 34s-36-16-36-34z" fill="url(#stemGradient)" stroke="#c48b4c" stroke-width="8" />
    <circle cx="94" cy="158" r="18" fill="#4f2d16" />
    <circle cx="126" cy="158" r="18" fill="#4f2d16" />
  </g>
</svg>
